<svg xmlns="http://www.w3.org/2000/svg" width="1536" height="1536" viewBox="0 0 1536 1536" version="1.1">
	<path d="M 702.057 306.009 C 669.738 308.718, 633.557 318.079, 603 331.638 C 522.310 367.441, 458.299 436.991, 429.390 520.269 C 419.079 549.971, 414.060 578.960, 413.286 613.271 C 412.698 639.393, 413.662 653.818, 417.531 676.732 C 420.036 691.573, 420.885 695.029, 426.680 714 C 438.447 752.525, 460.698 793.543, 486.893 825 C 500.086 840.843, 523.428 863.097, 540.500 876.107 C 575.697 902.930, 622.232 924.769, 663.779 933.964 C 685.239 938.713, 693.962 939.480, 726 939.432 C 752.750 939.392, 758.098 939.114, 769.500 937.174 C 792.125 933.326, 811.627 927.789, 831.492 919.575 L 842.484 915.029 844.606 917.265 C 849.600 922.526, 906.369 988.045, 925.389 1010.500 C 928.185 1013.800, 930.928 1016.989, 931.486 1017.586 C 932.044 1018.183, 941.725 1029.365, 953 1042.434 L 973.500 1066.196 973.756 990.612 L 974.013 915.027 979.256 912.397 C 998.188 902.902, 1025.515 883.585, 1044.639 866.180 C 1072.280 841.022, 1095.661 809.858, 1113.047 775 C 1121.538 757.977, 1123.846 752.455, 1129.924 734.624 C 1149.284 677.827, 1152.654 614.511, 1139.422 556.172 C 1135.007 536.707, 1125.149 508.513, 1116.308 490.061 C 1080.999 416.375, 1016.497 362.143, 938 340.142 C 929.045 337.632, 894.834 330.832, 894.225 331.441 C 893.990 331.676, 895.670 332.373, 897.958 332.989 C 904.031 334.624, 934.884 350.511, 946.500 357.984 C 957.574 365.108, 971.745 375.385, 982.618 384.177 C 997.769 396.427, 1026.853 427.861, 1033.500 439.170 C 1034.050 440.106, 1036.138 443.265, 1038.141 446.191 C 1043.551 454.094, 1057.028 478.557, 1060.073 486 C 1061.536 489.575, 1063.664 494.525, 1064.803 497 C 1072.349 513.407, 1081.984 545.624, 1084.989 564.500 C 1088.901 589.075, 1090.367 633.728, 1087.945 654.500 C 1084.770 681.715, 1077.319 716.552, 1071.382 731.935 C 1069.988 735.546, 1068.358 739.850, 1067.759 741.500 C 1067.161 743.150, 1066.070 745.210, 1065.335 746.079 C 1064.601 746.947, 1064 748.394, 1064 749.294 C 1064 756.711, 1045.335 793.282, 1032.277 811.450 C 1028.267 817.028, 1026.282 818.604, 1029.423 813.715 C 1030.671 811.772, 1030.648 811.320, 1029.233 810.033 C 1027.795 808.726, 1027.695 808.763, 1028.314 810.375 C 1028.817 811.687, 1028.457 812.329, 1027.004 812.709 C 1024.630 813.330, 1024.540 813.898, 1026.396 816.547 C 1027.618 818.292, 1027.556 818.830, 1025.896 820.881 C 1023.876 823.374, 1023.395 823, 1024.930 820.130 C 1025.495 819.076, 1025.501 817.823, 1024.946 816.946 C 1024.241 815.833, 1024.027 816.042, 1024.015 817.857 C 1024.004 819.573, 1023.578 820.052, 1022.448 819.618 C 1021.594 819.291, 1021.092 819.355, 1021.331 819.761 C 1022.192 821.226, 1020.025 825.002, 1018.282 825.070 C 1016.729 825.132, 1016.757 825.245, 1018.500 825.951 C 1019.854 826.499, 1021.125 826.234, 1022.435 825.131 C 1025.346 822.677, 1019.819 830.016, 1009.353 842.500 C 997.621 856.495, 994.432 860, 993.431 860 C 992.988 860, 993.919 858.650, 995.500 857 C 997.081 855.350, 997.867 854, 997.246 854 C 996.626 854, 995.840 854.450, 995.500 855 C 995.160 855.550, 994.432 856, 993.882 856 C 993.332 856, 993.188 855.505, 993.562 854.900 C 994.039 854.127, 993.611 854.138, 992.121 854.935 C 989.736 856.212, 989.384 857.585, 991.250 858.338 C 991.938 858.615, 991.487 858.878, 990.250 858.921 C 988.952 858.967, 988 859.635, 988 860.500 C 988 861.325, 987.502 862, 986.893 862 C 986.284 862, 986.045 861.325, 986.362 860.500 C 986.678 859.675, 986.501 859, 985.969 859 C 985.436 859, 985 859.900, 985 861 C 985 862.100, 985.477 863, 986.059 863 C 986.641 863, 986.876 863.392, 986.580 863.871 C 986.284 864.350, 984.204 864.663, 981.959 864.567 C 979.714 864.470, 977.677 864.714, 977.433 865.108 C 977.190 865.502, 978.078 865.706, 979.407 865.560 C 981.089 865.375, 981.667 865.704, 981.307 866.641 C 981.023 867.382, 980.428 867.765, 979.985 867.491 C 978.169 866.368, 976.142 868.282, 976.220 871.046 C 976.265 872.633, 975.729 874.621, 975.029 875.465 C 974.328 876.309, 974.205 877, 974.755 877 C 976.141 877, 978.427 874.093, 977.651 873.318 C 977.303 872.969, 977.576 871.994, 978.259 871.150 C 979.249 869.926, 979.247 869.768, 978.250 870.367 C 977.563 870.780, 977 870.716, 977 870.226 C 977 868.593, 978.243 868.060, 979.936 868.966 C 981.227 869.657, 982.578 868.848, 985.849 865.431 C 988.181 862.994, 990.294 861, 990.544 861 C 992.093 861, 990.256 863.570, 985.064 868.670 C 972.457 881.051, 968.281 884.831, 962 889.542 C 958.425 892.223, 953.959 895.786, 952.075 897.459 C 948.691 900.463, 948.675 900.466, 950.728 897.738 C 951.871 896.219, 952.690 894.194, 952.547 893.238 C 952.404 892.282, 952.480 892.063, 952.717 892.750 C 953.349 894.587, 954.811 894.275, 956.232 892 C 956.919 890.900, 957.978 890, 958.586 890 C 959.193 890, 960.495 889.111, 961.479 888.024 C 962.462 886.937, 963.625 886.268, 964.062 886.538 C 965.177 887.228, 966.175 883.619, 965.416 881.641 C 965.066 880.729, 965.278 880, 965.893 880 C 966.502 880, 967 880.675, 967 881.500 C 967 882.325, 967.648 883, 968.441 883 C 970.265 883, 971.732 880.744, 970.233 880.244 C 969.617 880.039, 969.338 879.283, 969.614 878.564 C 969.889 877.846, 969.458 877.006, 968.655 876.698 C 967.051 876.082, 963.573 878.205, 963.375 879.919 C 963.306 880.514, 963.194 881.450, 963.125 882 C 963.056 882.550, 962.212 882.964, 961.250 882.921 C 960.205 882.874, 960.003 882.639, 960.750 882.338 C 962.652 881.570, 962.243 880.444, 960 880.275 C 958.900 880.192, 958 880.546, 958 881.062 C 958 881.578, 956.650 882, 955 882 C 952.238 882, 952 881.722, 952 878.500 C 952 875.083, 951.905 875, 948 875 C 944.194 875, 944 875.150, 944 878.099 C 944 880.252, 944.915 882.052, 947 884 C 948.650 885.541, 950 887.072, 950 887.401 C 950 887.731, 947.750 888, 945 888 C 942.250 888, 940 887.550, 940 887 C 940 886.450, 940.900 886, 942 886 C 944.372 886, 944.584 884.730, 942.500 883 C 941.542 882.205, 941 879.993, 941 876.878 C 941 873.209, 941.372 872, 942.500 872 C 943.325 872, 944 871.325, 944 870.500 C 944 868.556, 942.107 868.556, 941.362 870.500 C 941.045 871.325, 939.709 872, 938.393 872 C 936.325 872, 936 871.525, 936 868.500 C 936 865.083, 935.905 865, 932 865 C 929.800 865, 927.944 865.450, 927.875 866 C 927.806 866.550, 927.694 867.556, 927.625 868.236 C 927.556 868.916, 926.600 869.615, 925.500 869.790 C 923.999 870.028, 923.840 869.875, 924.863 869.175 C 926.014 868.387, 926.014 868.158, 924.863 867.700 C 923.939 867.333, 923.895 867.132, 924.725 867.079 C 925.595 867.023, 925.691 866.317, 925.055 864.644 C 924.249 862.524, 925.553 860.864, 938.080 848.061 C 945.736 840.236, 952 834.221, 952 834.694 C 952 835.168, 951.071 836.351, 949.935 837.324 C 948.694 838.386, 947.990 840.017, 948.172 841.407 C 948.339 842.680, 947.864 844.460, 947.115 845.361 C 946.343 846.292, 946.205 847, 946.796 847 C 947.368 847, 948.661 847.267, 949.668 847.594 C 951.062 848.047, 951.171 847.954, 950.122 847.206 C 949.358 846.661, 949.079 845.681, 949.497 845.005 C 950.077 844.067, 950.461 844.099, 951.166 845.143 C 951.784 846.058, 951.997 845.286, 951.818 842.773 C 951.664 840.591, 952.122 838.518, 952.924 837.773 C 954.048 836.729, 954.196 836.783, 953.745 838.076 C 953.369 839.156, 953.768 839.609, 955.015 839.517 C 957.156 839.360, 960 837.194, 960 835.723 C 960 835.155, 959.165 835.446, 958.143 836.370 C 956.486 837.870, 956.151 837.887, 955.021 836.525 C 953.989 835.282, 954.014 835, 955.155 835 C 957.183 835, 960.240 831.069, 959.570 829.323 C 958.761 827.214, 956.486 828.296, 956.569 830.750 C 956.612 832.051, 956.156 832.613, 955.319 832.292 C 953.536 831.608, 953.490 831.711, 957.836 826.689 C 961.168 822.840, 961.818 822.470, 962.777 823.878 C 963.775 825.343, 963.888 825.325, 963.941 823.691 C 963.974 822.696, 964.450 822.160, 965 822.500 C 965.550 822.840, 966 822.368, 966 821.452 C 966 820.325, 965.474 819.988, 964.374 820.410 C 962.436 821.154, 963.084 820.073, 971.882 807.886 C 974.972 803.606, 979.750 796.499, 982.500 792.093 C 985.250 787.687, 987.837 784.063, 988.250 784.041 C 989.265 783.986, 989.193 784.770, 987.977 787.043 C 987.136 788.615, 987.242 788.844, 988.573 788.334 C 989.780 787.870, 990.038 786.939, 989.585 784.673 C 989.130 782.402, 989.611 780.674, 991.488 777.838 C 992.870 775.751, 994 773.819, 994 773.546 C 994 773.272, 996.240 768.322, 998.978 762.546 C 1013.437 732.042, 1020.470 710.074, 1026.050 677.984 C 1030.377 653.106, 1031.351 636.174, 1030.143 606.877 C 1028.202 559.802, 1018.191 518.400, 998.704 476.846 C 992.890 464.450, 977.480 438.792, 969.667 428.500 C 966.326 424.100, 961.559 417.800, 959.072 414.500 C 950.294 402.850, 926.828 380.939, 906 364.945 C 867.171 335.127, 814.104 313.990, 760.500 306.991 C 749.380 305.539, 714.628 304.955, 702.057 306.009 M 641 477.428 C 634.447 479.246, 630.911 481.315, 624.788 486.911 C 618.109 493.015, 613.451 501.470, 612.081 509.976 C 611.418 514.092, 611.045 554.864, 611.039 623.943 C 611.027 738.952, 611.040 739.278, 615.967 748.935 C 620.187 757.207, 630.464 764.916, 639.717 766.750 C 641.798 767.163, 646.875 767.467, 651 767.427 C 660.964 767.330, 665.762 765.114, 693.500 747.800 C 705.600 740.247, 719.028 731.915, 723.339 729.284 C 727.651 726.653, 735.976 721.535, 741.839 717.911 C 747.703 714.287, 764.200 704.229, 778.500 695.559 C 852.353 650.785, 854.139 649.508, 860.280 637.066 C 868.559 620.293, 862.589 601.315, 845.412 589.801 C 841.610 587.253, 819.600 573.609, 796.500 559.482 C 773.400 545.355, 752.925 532.781, 751 531.541 C 747.621 529.363, 719.367 511.862, 692.500 495.304 C 671.076 482.101, 665.692 479.113, 660.476 477.531 C 654.575 475.741, 647.218 475.702, 641 477.428 M 1066 739.059 C 1066 739.641, 1066.450 739.840, 1067 739.500 C 1067.550 739.160, 1068 738.684, 1068 738.441 C 1068 738.198, 1067.550 738, 1067 738 C 1066.450 738, 1066 738.477, 1066 739.059 M 1059.414 754.250 C 1059.366 755.487, 1058.992 757.400, 1058.582 758.500 C 1057.847 760.471, 1057.859 760.472, 1059.418 758.559 C 1061.030 756.581, 1061.611 752, 1060.250 752 C 1059.838 752, 1059.461 753.013, 1059.414 754.250 M 998.485 766.033 C 996.777 769.820, 996.767 770.196, 998.329 771.757 C 999.253 772.682, 1000 772.923, 1000 772.298 C 1000 771.676, 999.438 770.968, 998.750 770.725 C 997.816 770.395, 997.983 769.362, 999.411 766.636 C 1000.462 764.630, 1001.094 762.761, 1000.817 762.484 C 1000.540 762.207, 999.490 763.804, 998.485 766.033 M 991.345 779.543 C 990.445 781.889, 991.417 782.164, 992.796 779.955 C 993.569 778.717, 993.635 778, 992.977 778 C 992.405 778, 991.671 778.694, 991.345 779.543 M 1032.116 804.168 C 1032.052 805.636, 1031.691 807.661, 1031.313 808.668 C 1030.700 810.301, 1030.814 810.346, 1032.367 809.082 C 1033.325 808.302, 1034.587 806.772, 1035.171 805.681 C 1036.043 804.050, 1035.956 803.803, 1034.679 804.293 C 1033.714 804.663, 1032.956 804.247, 1032.679 803.195 C 1032.413 802.185, 1032.185 802.579, 1032.116 804.168 M 978.500 806 C 978.160 806.550, 978.359 807, 978.941 807 C 979.523 807, 980 806.550, 980 806 C 980 805.450, 979.802 805, 979.559 805 C 979.316 805, 978.840 805.450, 978.500 806 M 1024.667 808.667 C 1023.711 809.622, 1023.845 811, 1024.893 811 C 1025.384 811, 1026.045 810.325, 1026.362 809.500 C 1026.947 807.976, 1025.881 807.452, 1024.667 808.667 M 966 818.382 C 966 819.207, 966.450 820.160, 967 820.500 C 967.550 820.840, 968 820.443, 968 819.618 C 968 818.793, 967.550 817.840, 967 817.500 C 966.450 817.160, 966 817.557, 966 818.382 M 961.624 827.539 C 960.659 830.053, 960.943 830.702, 962.122 828.675 C 962.706 827.671, 962.973 826.639, 962.715 826.382 C 962.458 826.124, 961.966 826.645, 961.624 827.539 M 1009.029 834.961 C 1008.220 835.473, 1007.818 836.152, 1008.136 836.470 C 1008.455 836.788, 1009.284 836.362, 1009.980 835.524 C 1011.423 833.786, 1011.146 833.622, 1009.029 834.961 M 971.667 835.667 C 970.629 836.704, 970.883 840, 972 840 C 972.550 840, 973 838.875, 973 837.500 C 973 834.882, 972.769 834.564, 971.667 835.667 M 949 841.500 C 949 842.325, 949.450 843, 950 843 C 950.550 843, 951 842.325, 951 841.500 C 951 840.675, 950.550 840, 950 840 C 949.450 840, 949 840.675, 949 841.500 M 1002.500 841 C 1002.160 841.550, 1002.332 842, 1002.882 842 C 1003.432 842, 1004.160 841.550, 1004.500 841 C 1004.840 840.450, 1004.668 840, 1004.118 840 C 1003.568 840, 1002.840 840.450, 1002.500 841 M 1001.211 844.538 C 999.542 846.430, 1001.055 846.426, 1003.559 844.532 C 1005.023 843.425, 1005.131 843.065, 1004 843.070 C 1003.175 843.073, 1001.920 843.734, 1001.211 844.538 M 943 848.059 C 943 848.641, 943.450 848.840, 944 848.500 C 944.550 848.160, 945 847.684, 945 847.441 C 945 847.198, 944.550 847, 944 847 C 943.450 847, 943 847.477, 943 848.059 M 941.423 850.278 C 942.336 851.806, 942.832 853.463, 942.525 853.959 C 942.218 854.456, 942.331 855.087, 942.776 855.362 C 944.483 856.417, 943.744 852.323, 941.803 849.971 L 939.763 847.500 941.423 850.278 M 994.625 848.798 C 994.354 849.237, 994.532 850.243, 995.022 851.035 C 995.693 852.121, 995.870 851.924, 995.743 850.237 C 995.560 847.810, 995.379 847.577, 994.625 848.798 M 935.564 853.707 C 935.022 855.132, 935.136 855.247, 936.124 854.267 C 936.808 853.588, 937.115 852.781, 936.807 852.474 C 936.499 852.166, 935.940 852.721, 935.564 853.707 M 932.630 858.210 C 932.928 858.693, 932.629 859.742, 931.965 860.543 C 930.960 861.754, 931.167 861.964, 933.201 861.795 C 935.113 861.637, 935.556 861.130, 935.238 859.463 C 935.014 858.292, 934.213 857.333, 933.459 857.333 C 932.705 857.333, 932.332 857.728, 932.630 858.210 M 926.333 863.456 C 926.333 864.257, 926.716 864.676, 927.183 864.387 C 927.650 864.098, 927.774 863.443, 927.457 862.931 C 926.649 861.623, 926.333 861.770, 926.333 863.456 M 931.813 863.683 C 932.534 863.972, 933.397 863.936, 933.729 863.604 C 934.061 863.272, 933.471 863.036, 932.417 863.079 C 931.252 863.127, 931.015 863.364, 931.813 863.683 M 915.306 869.573 L 912.500 872.146 915.750 869.885 C 917.538 868.641, 919 867.484, 919 867.312 C 919 866.523, 917.894 867.200, 915.306 869.573 M 917.603 870.833 C 917.320 871.292, 917.723 871.667, 918.500 871.667 C 919.277 871.667, 919.680 871.292, 919.397 870.833 C 919.114 870.375, 918.710 870, 918.500 870 C 918.290 870, 917.886 870.375, 917.603 870.833 M 971 872.393 C 971 872.609, 971.698 873.054, 972.552 873.382 C 973.442 873.723, 973.843 873.555, 973.493 872.989 C 972.906 872.038, 971 871.583, 971 872.393 M 908 875 C 906.718 875.828, 906.754 875.972, 908.250 875.985 C 909.212 875.993, 910 875.550, 910 875 C 910 873.780, 909.887 873.780, 908 875 M 968 874.781 C 968 875.210, 969.350 876.071, 971 876.694 C 974.411 877.981, 974.650 877.793, 972.429 875.571 C 970.788 873.930, 968 873.433, 968 874.781 M 901 880.598 C 898.525 882.567, 895.825 884.579, 895 885.070 C 893.667 885.864, 893.667 886.075, 895 886.966 C 896.949 888.270, 898 888.261, 898 886.941 C 898 886.359, 897.438 886.200, 896.750 886.588 C 895.750 887.152, 895.750 887.024, 896.750 885.947 C 897.674 884.951, 898.293 884.893, 899.122 885.722 C 900.450 887.050, 903.267 886.240, 902.369 884.788 C 901.988 884.172, 901.419 884.309, 900.890 885.143 C 900.168 886.283, 900.028 886.282, 900.015 885.135 C 900.007 884.384, 901.663 882.247, 903.695 880.385 C 908.581 875.910, 906.708 876.058, 901 880.598 M 908.558 877.907 C 908.249 878.405, 908.898 878.578, 909.999 878.290 C 912.334 877.679, 912.629 877, 910.559 877 C 909.766 877, 908.866 877.408, 908.558 877.907 M 926 878.500 C 926 879.325, 926.450 880, 927 880 C 927.550 880, 928 879.325, 928 878.500 C 928 877.675, 927.550 877, 927 877 C 926.450 877, 926 877.675, 926 878.500 M 962 884 C 960.787 884.784, 960.931 884.972, 962.750 884.985 C 963.987 884.993, 965 884.550, 965 884 C 965 882.747, 963.939 882.747, 962 884 M 891 888.571 C 891 888.886, 891.675 889.818, 892.500 890.643 C 894.128 892.271, 894.332 892.029, 893.393 889.582 C 892.823 888.095, 891 887.326, 891 888.571 M 878.032 896.939 C 877.291 898.324, 877.325 899.083, 878.152 899.594 C 878.844 900.021, 879.039 899.872, 878.638 899.223 C 878.269 898.626, 878.974 897.431, 880.206 896.568 C 881.995 895.315, 882.106 895, 880.758 895 C 879.830 895, 878.603 895.873, 878.032 896.939 M 873.540 899.347 C 872.526 900.088, 872.125 900.959, 872.648 901.283 C 873.172 901.606, 874.144 901, 874.808 899.935 C 876.238 897.646, 876.011 897.540, 873.540 899.347 M 944.500 903 C 944.160 903.550, 944.359 904, 944.941 904 C 945.523 904, 946 903.550, 946 903 C 946 902.450, 945.802 902, 945.559 902 C 945.316 902, 944.840 902.450, 944.500 903 M 878.629 904.813 C 877.844 906.063, 878.240 906.719, 883.144 912.284 C 884.069 913.334, 885.051 913.726, 885.389 913.180 C 885.719 912.646, 885.288 911.941, 884.431 911.612 C 883.560 911.278, 883.190 910.502, 883.591 909.853 C 884.010 909.175, 883.875 908.959, 883.268 909.334 C 882.017 910.107, 880.359 908.256, 879.834 905.500 C 879.550 904.007, 879.244 903.833, 878.629 904.813 M 944.477 906.250 C 944.224 906.938, 944.403 911.100, 944.875 915.500 L 945.734 923.500 945.867 914.250 C 945.991 905.616, 945.581 903.253, 944.477 906.250 M 886.015 914.576 C 886.023 915.084, 887.622 917.300, 889.568 919.500 C 891.540 921.730, 892.624 922.504, 892.017 921.250 C 891.387 919.947, 891.326 919, 891.871 919 C 892.389 919, 892.577 918.100, 892.290 917 C 892.002 915.900, 891.383 915, 890.915 915 C 890.446 915, 890.346 915.788, 890.692 916.750 C 891.168 918.075, 890.674 917.911, 888.660 916.076 C 887.197 914.742, 886.007 914.067, 886.015 914.576 M 945.310 936.500 C 945.315 939.800, 945.502 941.029, 945.725 939.232 C 945.947 937.435, 945.943 934.735, 945.715 933.232 C 945.486 931.729, 945.304 933.200, 945.310 936.500 M 908.854 941.750 C 909.948 943.263, 914.029 948.048, 917.922 952.384 C 921.815 956.720, 925 960.550, 925 960.894 C 925 961.238, 926.013 962.141, 927.250 962.901 C 929.474 964.267, 929.478 964.259, 927.652 962.205 C 926.636 961.061, 926.100 959.648, 926.461 959.063 C 926.822 958.478, 926.439 958, 925.609 958 C 924.779 958, 923.740 957.364, 923.300 956.586 C 922.860 955.808, 920.574 953.120, 918.221 950.613 C 915.867 948.106, 914.049 945.930, 914.181 945.777 C 914.521 945.385, 908.195 939, 907.466 939 C 907.135 939, 907.759 940.237, 908.854 941.750 M 945.378 955 C 945.378 961.325, 945.541 963.913, 945.739 960.750 C 945.937 957.587, 945.937 952.413, 945.739 949.250 C 945.541 946.087, 945.378 948.675, 945.378 955 M 945.079 969.583 C 945.127 970.748, 945.364 970.985, 945.683 970.188 C 945.972 969.466, 945.936 968.603, 945.604 968.271 C 945.272 967.939, 945.036 968.529, 945.079 969.583 M 940.099 977.750 C 941.647 980.271, 941.894 980.353, 943.971 979.039 C 944.780 978.527, 945.056 977.747, 944.584 977.304 C 944.112 976.862, 943.516 977.090, 943.259 977.811 C 942.903 978.813, 942.311 978.695, 940.755 977.311 C 938.752 975.531, 938.740 975.539, 940.099 977.750 M 943.500 982 C 943.840 982.550, 944.541 983, 945.059 983 C 945.577 983, 946 982.550, 946 982 C 946 981.450, 945.298 981, 944.441 981 C 943.584 981, 943.160 981.450, 943.500 982 M 610.994 1067.934 C 599.678 1071.377, 594.061 1079.687, 594.022 1093.044 C 594.002 1099.791, 594.344 1101.165, 597.250 1106.044 C 600.234 1111.053, 602.875 1113.117, 610.800 1116.633 C 610.964 1116.706, 609.024 1120.184, 606.487 1124.362 C 602.556 1130.837, 595.330 1147.800, 596.213 1148.480 C 597.121 1149.179, 610.415 1151.971, 615.550 1152.541 C 621.550 1153.207, 621.621 1153.185, 624.150 1149.857 C 628.974 1143.506, 635.973 1130.486, 638.942 1122.335 C 647.555 1098.695, 647.287 1084.192, 638.069 1074.973 C 631.213 1068.117, 619.986 1065.199, 610.994 1067.934 M 196.724 1073.983 L 173.948 1074.500 173.986 1148.866 C 174.007 1189.767, 174.215 1223.538, 174.447 1223.914 C 175.228 1225.178, 296.409 1223.940, 297.303 1222.659 C 297.747 1222.021, 297.871 1214.300, 297.578 1205.500 C 297.285 1196.700, 297.035 1189.162, 297.022 1188.750 C 297.010 1188.338, 280.129 1188, 259.508 1188 L 222.016 1188 221.758 1130.833 C 221.590 1093.645, 221.151 1073.632, 220.500 1073.567 C 219.950 1073.512, 209.251 1073.699, 196.724 1073.983 M 707 1093.585 C 684.019 1097.686, 669.831 1106.526, 663.223 1120.861 C 657.592 1133.076, 659.844 1147.292, 668.997 1157.306 C 676.647 1165.677, 684.346 1168.983, 711.500 1175.557 C 723.207 1178.391, 728.374 1180.542, 731.330 1183.811 C 734.270 1187.061, 733.118 1190.188, 728.038 1192.750 C 718.636 1197.491, 696.728 1194.571, 673.895 1185.533 C 672.674 1185.049, 671.749 1186.164, 670.023 1190.199 C 668.776 1193.114, 665.793 1199.457, 663.394 1204.292 L 659.032 1213.085 663.766 1215.141 C 670.569 1218.095, 681.269 1221.498, 690.500 1223.642 C 701.710 1226.246, 726.594 1226.239, 736.500 1223.630 C 752.235 1219.486, 763.907 1211.203, 770.076 1199.803 C 773.282 1193.878, 773.484 1192.931, 773.464 1184 C 773.445 1175.691, 773.111 1173.873, 770.805 1169.500 C 767.327 1162.905, 760.894 1156.798, 753.500 1153.074 C 749.832 1151.226, 740.086 1148.272, 728.426 1145.472 C 703.700 1139.535, 699.640 1137.139, 702.559 1130.199 C 706.184 1121.576, 726.153 1121.306, 749.776 1129.561 C 753.470 1130.852, 756.762 1131.591, 757.091 1131.204 C 757.420 1130.817, 759.643 1125.775, 762.031 1120 C 764.418 1114.225, 766.738 1109.072, 767.186 1108.550 C 770.594 1104.572, 765.502 1101.610, 747 1096.809 C 737.787 1094.418, 732.914 1093.756, 722.500 1093.482 C 715.350 1093.293, 708.375 1093.340, 707 1093.585 M 511.750 1095.758 L 452 1096.016 452 1111.577 L 452 1127.138 471.991 1126.819 L 491.983 1126.500 492.241 1175 L 492.500 1223.500 509.500 1223.795 C 518.850 1223.956, 527.962 1223.824, 529.750 1223.499 L 533 1222.909 533 1174.955 L 533 1127 553 1127 L 573 1127 573 1111.559 C 573 1103.066, 572.663 1095.979, 572.250 1095.809 C 571.837 1095.639, 544.612 1095.616, 511.750 1095.758 M 327.243 1159.750 L 327.500 1223.500 381.750 1223.720 L 436 1223.940 436 1208.470 L 436 1193 402 1193 L 368 1193 367.838 1187.750 C 367.749 1184.862, 367.595 1180.588, 367.496 1178.250 C 367.319 1174.084, 367.382 1173.998, 370.658 1173.875 C 372.496 1173.806, 374.450 1173.638, 375 1173.500 C 375.550 1173.362, 386.800 1173.194, 400 1173.125 L 424 1173 424 1158.500 L 424 1144 396 1144 L 368 1144 368 1135.014 L 368 1126.028 400.250 1125.764 L 432.500 1125.500 432.777 1110.750 L 433.053 1096 380.019 1096 L 326.985 1096 327.243 1159.750 M 863.917 1101.417 C 863.688 1101.646, 863.512 1107.833, 863.526 1115.167 L 863.553 1128.500 882.776 1128.772 L 902 1129.043 902 1174.835 L 902 1220.627 920 1220.685 L 938 1220.742 938 1174.871 L 938 1129 956 1129 L 974 1129 974 1115 L 974 1101 919.167 1101 C 889.008 1101, 864.146 1101.188, 863.917 1101.417 M 1018.459 1115.625 C 1014.906 1123.119, 1012 1129.386, 1012 1129.552 C 1012 1129.718, 1010.366 1133.374, 1008.369 1137.677 C 1006.371 1141.980, 1002.378 1150.675, 999.495 1157 C 996.612 1163.325, 989.021 1179.699, 982.626 1193.386 C 976.232 1207.074, 971 1218.852, 971 1219.560 C 971 1220.570, 975.008 1220.810, 989.594 1220.674 L 1008.189 1220.500 1011.590 1212 C 1013.460 1207.325, 1015.523 1202.480, 1016.173 1201.233 L 1017.356 1198.966 1041.820 1199.233 C 1062.361 1199.457, 1066.409 1199.740, 1067.070 1201 C 1067.503 1201.825, 1069.441 1206.550, 1071.379 1211.500 L 1074.901 1220.500 1094.010 1220.725 C 1116.278 1220.987, 1114.650 1222.847, 1106.796 1206.124 C 1104.052 1200.281, 1099.201 1189.650, 1096.016 1182.500 C 1092.831 1175.350, 1089.104 1167.025, 1087.733 1164 C 1086.362 1160.975, 1082.530 1152.425, 1079.217 1145 C 1075.904 1137.575, 1071.421 1127.675, 1069.253 1123 C 1067.085 1118.325, 1064.055 1111.688, 1062.519 1108.250 L 1059.727 1102 1042.322 1102 L 1024.917 1102 1018.459 1115.625 M 1129.432 1102.917 C 1129.194 1103.146, 1129 1129.710, 1129 1161.948 L 1129 1220.563 1176.222 1220.531 L 1223.444 1220.500 1223.333 1218.250 C 1223.272 1217.013, 1223.172 1210.587, 1223.111 1203.972 L 1223 1191.944 1194.250 1192.030 L 1165.500 1192.117 1165.427 1169.809 C 1165.387 1157.539, 1165.274 1137.309, 1165.177 1124.854 L 1165 1102.208 1147.432 1102.354 C 1137.769 1102.434, 1129.669 1102.688, 1129.432 1102.917 M 1244.468 1103.226 C 1244.200 1103.927, 1244.098 1130.600, 1244.240 1162.500 L 1244.500 1220.500 1262.250 1220.773 L 1280 1221.046 1280 1208.407 L 1280 1195.768 1283.416 1191.134 C 1285.294 1188.585, 1288.226 1185.172, 1289.930 1183.549 C 1293.017 1180.610, 1293.036 1180.606, 1294.484 1182.673 C 1295.283 1183.815, 1302.270 1192.905, 1310.010 1202.873 L 1324.083 1220.996 1345.542 1220.899 C 1357.344 1220.846, 1366.997 1220.509, 1366.993 1220.151 C 1366.985 1219.474, 1340.138 1186.272, 1324.824 1168 C 1319.983 1162.225, 1316.018 1156.782, 1316.012 1155.905 C 1316.005 1155.028, 1316.966 1153.453, 1318.146 1152.405 C 1319.326 1151.357, 1327.724 1142.400, 1336.809 1132.500 C 1345.893 1122.600, 1355.417 1112.250, 1357.973 1109.500 C 1360.528 1106.750, 1362.956 1103.938, 1363.369 1103.250 C 1363.958 1102.267, 1359.952 1102, 1344.620 1102 L 1325.123 1102 1302.811 1125.343 L 1280.500 1148.687 1280 1125.593 L 1279.500 1102.500 1262.228 1102.226 C 1248.958 1102.016, 1244.843 1102.248, 1244.468 1103.226 M 1041 1138.124 C 1041 1138.742, 1038.311 1145.708, 1035.024 1153.605 C 1031.737 1161.501, 1028.792 1168.983, 1028.480 1170.231 L 1027.912 1172.500 1041.456 1172.500 C 1048.906 1172.500, 1054.997 1172.275, 1054.992 1172 C 1054.988 1171.725, 1052.459 1164.975, 1049.373 1157 C 1046.287 1149.025, 1043.539 1141.263, 1043.267 1139.750 C 1042.791 1137.103, 1041 1135.818, 1041 1138.124" stroke="none" fill="black" fill-rule="evenodd"/>
</svg>